HIERARCHY
ROOT Hips
{
	OFFSET 0 0 0
	CHANNELS 6 Xposition Yposition Zposition Yrotation Xrotation Zrotation
	JOINT Spine
	{
		OFFSET -0 8.46208 -2.69729
		CHANNELS 3 Yrotation Xrotation Zrotation
		JOINT Spine1
		{
			OFFSET -0 8.80071 0
			CHANNELS 3 Yrotation Xrotation Zrotation
			JOINT Spine2
			{
				OFFSET -0 8.80071 0
				CHANNELS 3 Yrotation Xrotation Zrotation
				JOINT Spine3
				{
					OFFSET -0 8.80071 0
					CHANNELS 3 Yrotation Xrotation Zrotation
					JOINT Neck
					{
						OFFSET -0 20.1555 3.69729
						CHANNELS 3 Yrotation Xrotation Zrotation
						JOINT Head
						{
							OFFSET -0 10.5776 0
							CHANNELS 3 Yrotation Xrotation Zrotation
							End Site
							{
								OFFSET 0 15 0
							}
						}
					}
					JOINT LeftShoulder
					{
						OFFSET 1.76293 7.4903 3.52587
						CHANNELS 3 Yrotation Xrotation Zrotation
						JOINT LeftArm
						{
							OFFSET 15.2073 0 0
							CHANNELS 3 Yrotation Xrotation Zrotation
							JOINT LeftForeArm
							{
								OFFSET 24.6661 0 0
								CHANNELS 3 Yrotation Xrotation Zrotation
								JOINT LeftHand
								{
									OFFSET 23.4971 0 0
									CHANNELS 3 Yrotation Xrotation Zrotation
									End Site
									{
										OFFSET 15 0 0
									}
								}
							}
						}
					}
					JOINT RightShoulder
					{
						OFFSET -1.76293 7.4903 3.52587
						CHANNELS 3 Yrotation Xrotation Zrotation
						JOINT RightArm
						{
							OFFSET -15.2073 0 0
							CHANNELS 3 Yrotation Xrotation Zrotation
							JOINT RightForeArm
							{
								OFFSET -24.6661 0 0
								CHANNELS 3 Yrotation Xrotation Zrotation
								JOINT RightHand
								{
									OFFSET -23.4971 0 0
									CHANNELS 3 Yrotation Xrotation Zrotation
									End Site
									{
										OFFSET -15 0 0
									}
								}
							}
						}
					}
				}
			}
		}
	}
	JOINT LeftUpLeg
	{
		OFFSET 10.5776 -3.52587 2
		CHANNELS 3 Yrotation Xrotation Zrotation
		JOINT LeftLeg
		{
			OFFSET -0 -40.2075 2.46811
			CHANNELS 3 Yrotation Xrotation Zrotation
			JOINT LeftFoot
			{
				OFFSET -0 -40.4039 -2.46811
				CHANNELS 3 Yrotation Xrotation Zrotation
				JOINT LeftToeBase
				{
					OFFSET -0 -6.80669 15.8664
					CHANNELS 3 Yrotation Xrotation Zrotation
					End Site
					{
						OFFSET 0 0 5
					}
				}
			}
		}
	}
	JOINT RightUpLeg
	{
		OFFSET -10.5776 -3.52587 2
		CHANNELS 3 Yrotation Xrotation Zrotation
		JOINT RightLeg
		{
			OFFSET -0 -40.2075 2.46811
			CHANNELS 3 Yrotation Xrotation Zrotation
			JOINT RightFoot
			{
				OFFSET -0 -40.4039 -2.46811
				CHANNELS 3 Yrotation Xrotation Zrotation
				JOINT RightToeBase
				{
					OFFSET -0 -6.80669 15.8664
					CHANNELS 3 Yrotation Xrotation Zrotation
					End Site
					{
						OFFSET 0 0 5
					}
				}
			}
		}
	}
}
MOTION
Frames: 7
Frame Time: 0.00833333
-68.805347 91.023132 -6.889234 -5.747364 -2.696400 -0.690891 -2.984783 2.034032 -2.108140 -3.798076 2.072934 -1.482900 -4.748287 2.156191 -0.922702 -5.285172 2.136790 -0.795629 -6.137169 -5.573442 3.717844 -2.744076 5.286707 1.626780 -4.318480 3.645843 4.332539 -88.118276 -32.925248 -12.436100 -87.249348 -17.562262 16.762599 1.823357 -32.553795 -29.196459 0.221710 -5.333662 -5.755118 27.594403 -31.046875 14.206552 95.031681 1.850200 -46.648069 2.066945 -39.302152 52.164645 11.183507 -5.486134 13.000331 0.000000 20.736272 0.000000 10.607096 -4.624859 -12.028793 0.000000 -2.049905 0.000000 -5.108257 -5.724856 -14.852308 0.000000 16.292831 0.000000 -5.010636 1.046452 15.825695 0.000000 -4.038310 0.000000
-68.814380 91.035327 -6.867909 -5.705961 -2.699857 -0.714953 -2.997407 2.025824 -2.123741 -3.822939 2.045530 -1.519963 -4.769037 2.149838 -0.960927 -5.263491 2.131831 -0.697999 -6.101929 -5.472146 3.480653 -2.722179 5.271552 1.732190 -4.229742 3.514714 4.240847 -87.452609 -32.470704 -12.575507 -87.401216 -17.327186 16.425105 1.922615 -31.658882 -31.055167 0.183696 -5.306865 -5.894934 26.323413 -29.582881 14.100704 95.109377 1.774376 -44.856450 2.585672 -38.190978 53.125952 11.073946 -5.432209 13.019930 0.000000 20.679605 0.000000 10.673285 -4.612615 -12.009598 0.000000 -2.073236 0.000000 -5.045530 -5.727559 -14.856400 0.000000 16.369043 0.000000 -4.969034 1.166117 16.006824 0.000000 -4.303379 0.000000
-68.843488 91.036694 -6.841228 -5.669841 -2.702555 -0.722917 -3.016985 1.987428 -2.183972 -3.851849 2.054406 -1.553345 -4.737907 2.159798 -0.931497 -5.216779 2.092009 -0.632178 -6.132306 -5.351792 3.281085 -2.728440 5.211759 1.773352 -4.174802 3.397956 4.123544 -86.782640 -32.070181 -12.716814 -87.522490 -17.302136 15.969480 1.782238 -30.942727 -32.835462 0.085929 -5.318312 -6.044843 25.139487 -27.924253 13.934220 95.214594 1.607034 -43.012928 3.118002 -37.174235 53.911053 10.932397 -5.380094 13.037436 0.000000 20.650191 0.000000 10.794647 -4.596084 -12.076624 0.000000 -2.007784 0.000000 -5.016917 -5.721119 -14.846728 0.000000 16.439354 0.000000 -5.007757 1.135528 16.092874 0.000000 -4.321717 0.000000
-68.877863 91.034930 -6.822653 -5.642048 -2.718562 -0.745483 -2.989409 1.971144 -2.168706 -3.843737 2.102126 -1.561714 -4.729388 2.080269 -0.950033 -5.232526 2.096359 -0.677843 -6.228809 -5.265652 3.196970 -2.767031 5.198377 1.733290 -4.101315 3.354088 4.082095 -86.144860 -31.484852 -12.795613 -87.736140 -17.147859 15.699415 1.819363 -29.992537 -34.731155 0.000930 -5.316469 -6.044696 24.017543 -26.284868 13.630527 95.664087 1.142656 -41.153009 2.829617 -35.873095 55.074315 10.805655 -5.324705 13.078041 0.000000 20.622573 0.000000 10.890921 -4.563956 -12.082583 0.000000 -2.057295 0.000000 -4.924319 -5.743096 -14.842764 0.000000 16.604893 0.000000 -4.955451 1.156475 16.288346 0.000000 -4.537106 0.000000
-68.940063 91.017682 -6.797770 -5.616092 -2.739696 -0.743516 -2.977531 1.966817 -2.198085 -3.803499 2.083808 -1.569613 -4.763579 2.101807 -0.956920 -5.275520 2.073660 -0.724654 -6.261477 -5.244800 3.049662 -2.778021 5.272072 1.757809 -3.942726 3.256767 4.102060 -85.445368 -31.240493 -13.007445 -87.765772 -16.791288 15.105623 1.598094 -29.274478 -36.307197 -0.132411 -5.304672 -6.103155 23.195199 -24.430167 13.301229 95.670563 0.963359 -39.477036 3.335925 -34.627614 55.749398 10.662840 -5.279162 13.115166 0.000000 20.649623 0.000000 10.995733 -4.586466 -12.159828 0.000000 -2.029450 0.000000 -4.972801 -5.764689 -14.821072 0.000000 16.754369 0.000000 -4.887552 0.950560 16.177891 0.000000 -4.415070 0.000000
-69.005817 90.994995 -6.775038 -5.637917 -2.767295 -0.735845 -2.950276 1.957800 -2.175467 -3.772428 2.072491 -1.572314 -4.772104 2.080707 -1.016183 -5.298240 2.098683 -0.805622 -6.289888 -5.218470 2.990698 -2.788679 5.291231 1.662875 -3.836765 3.200500 4.086345 -84.631132 -30.826477 -13.255595 -88.128500 -16.423921 14.687166 1.883723 -28.011191 -37.734079 -0.274621 -5.288597 -6.061439 22.417364 -23.126772 12.816293 95.678025 0.626513 -37.069262 4.205272 -32.766284 54.926550 10.594322 -5.227272 13.156871 0.000000 20.675623 0.000000 11.078931 -4.614565 -12.225877 0.000000 -1.977224 0.000000 -4.936543 -5.794373 -14.798483 0.000000 16.933056 0.000000 -4.800959 0.764010 16.076649 0.000000 -4.417536 0.000000
-69.096387 90.966315 -6.763274 -5.619768 -2.805390 -0.728526 -2.990784 1.872916 -2.251752 -3.837684 2.164057 -1.626678 -4.730111 2.103861 -0.991239 -5.252332 2.109255 -0.778631 -6.289027 -5.233314 2.905759 -2.786574 5.334409 1.609442 -3.716964 3.176298 4.040956 -83.901902 -30.290825 -13.513853 -88.463135 -15.936569 14.401244 1.939471 -26.292468 -39.066792 -0.366591 -5.289486 -6.043947 21.782087 -21.205934 12.240439 95.756120 0.238563 -35.470315 4.263732 -31.313052 55.404131 10.449306 -5.180476 13.213271 0.000000 20.710933 0.000000 11.185870 -4.581833 -12.291554 0.000000 -2.012254 0.000000 -4.879597 -5.835521 -14.766923 0.000000 17.176389 0.000000 -4.759671 0.594377 16.002672 0.000000 -4.562618 0.000000
